<?xml version="1.0" encoding="UTF-8" standalone="no"?>
<!-- Created with Inkscape (http://www.inkscape.org/) -->

<svg
   width="57.917976mm"
   height="41.480461mm"
   viewBox="0 0 57.917976 41.480461"
   version="1.1"
   id="svg1"
   inkscape:export-filename="Rastergrafik.svg"
   inkscape:export-xdpi="96"
   inkscape:export-ydpi="96"
   xmlns:inkscape="http://www.inkscape.org/namespaces/inkscape"
   xmlns:sodipodi="http://sodipodi.sourceforge.net/DTD/sodipodi-0.dtd"
   xmlns="http://www.w3.org/2000/svg"
   xmlns:svg="http://www.w3.org/2000/svg">
  <sodipodi:namedview
     id="namedview1"
     pagecolor="#ffffff"
     bordercolor="#000000"
     borderopacity="0.25"
     inkscape:showpageshadow="2"
     inkscape:pageopacity="0.0"
     inkscape:pagecheckerboard="0"
     inkscape:deskcolor="#d1d1d1"
     inkscape:document-units="mm" />
  <defs
     id="defs1" />
  <g
     inkscape:label="Ebene 1"
     inkscape:groupmode="layer"
     id="layer1"
     transform="translate(-45.748048,-71.683592)">
    <path
       style="color:#000000;fill:#000000;stroke-linecap:round;stroke-linejoin:round;-inkscape-stroke:none"
       d="m 74.707031,71.683594 c -7.946448,0 -15.117759,0.123964 -20.30664,0.322265 -2.594441,0.09915 -4.693858,0.215615 -6.150391,0.347657 -0.728266,0.06602 -1.293512,0.136249 -1.691406,0.210937 -0.198947,0.03734 -0.35557,0.07307 -0.482422,0.121094 -0.06343,0.02401 -0.118859,0.04955 -0.179688,0.0957 -0.06083,0.04616 -0.148437,0.138419 -0.148437,0.28125 v 38.722663 c 0,0.14283 0.08761,0.23509 0.148437,0.28125 0.06083,0.0461 0.116262,0.0717 0.179688,0.0957 0.126852,0.048 0.283475,0.0857 0.482422,0.12305 0.397894,0.0747 0.96314,0.14296 1.691406,0.20898 1.456533,0.13204 3.55595,0.25046 6.150391,0.34961 5.188881,0.1983 12.360192,0.32031 20.30664,0.32031 7.946449,0 15.117759,-0.12201 20.306641,-0.32031 2.594441,-0.0991 4.691905,-0.21757 6.148438,-0.34961 0.72827,-0.066 1.29546,-0.1343 1.69336,-0.20898 0.19895,-0.0374 0.35361,-0.075 0.48047,-0.12305 0.0634,-0.024 0.12081,-0.0495 0.18164,-0.0957 0.0608,-0.0462 0.14844,-0.13842 0.14844,-0.28125 V 73.0625 c 0,-0.142831 -0.0876,-0.235093 -0.14844,-0.28125 -0.0608,-0.04616 -0.11822,-0.07169 -0.18164,-0.0957 -0.12686,-0.04802 -0.28152,-0.08375 -0.48047,-0.121094 -0.3979,-0.07469 -0.96509,-0.144916 -1.69336,-0.210937 C 99.705577,72.221474 97.608113,72.10501 95.013672,72.005859 89.82479,71.807558 82.65348,71.683594 74.707031,71.683594 Z m 0,0.564453 c 7.94066,0 15.10727,0.122431 20.285156,0.320312 2.588944,0.09894 4.68108,0.217289 6.119143,0.347657 0.71903,0.06518 1.27701,0.13487 1.64062,0.203125 0.1653,0.03103 0.27666,0.06286 0.34961,0.08789 v 38.435549 c -0.073,0.025 -0.18431,0.0569 -0.34961,0.0879 -0.36361,0.0683 -0.92159,0.13599 -1.64062,0.20117 -1.438063,0.13037 -3.530199,0.24872 -6.119143,0.34766 -5.177886,0.19788 -12.344496,0.32031 -20.285156,0.32031 -7.94066,0 -15.107269,-0.12243 -20.285156,-0.32031 -2.588943,-0.0989 -4.683033,-0.21729 -6.121094,-0.34766 -0.71903,-0.0652 -1.275054,-0.13292 -1.638672,-0.20117 -0.165299,-0.031 -0.276654,-0.0629 -0.349609,-0.0879 V 73.207031 c 0.07296,-0.02503 0.18431,-0.05686 0.349609,-0.08789 0.363618,-0.06825 0.919642,-0.137942 1.638672,-0.203125 1.438061,-0.130368 3.532151,-0.248716 6.121094,-0.347657 5.177887,-0.197881 12.344496,-0.320312 20.285156,-0.320312 z"
       id="rect1" />
  </g>
</svg>
