<?xml version="1.0" encoding="UTF-8" standalone="no"?>
<svg xmlns="http://www.w3.org/2000/svg" xmlns:xlink="http://www.w3.org/1999/xlink" width="177.269mm" height="60.308mm" viewBox="15.286605 24.942902 177.269424 60.308052">
    <path transform="matrix(2.067128,0,0,2.067128,103.912773,37.112511)" style="stroke:#000000;stroke-width:0.024188mm;fill:none" d="M-16.90332,-4.04834L-16.633301,-4.014648C-15.664694,-3.874772,-14.850564,-3.215971,-14.511719,-2.297852C-14.279322,-1.523677,-14.379414,-0.688104,-14.788086,0.009277C-15.132725,0.487361,-15.654087,0.807631,-16.236328,0.898926C-17.048731,1.063855,-17.890095,1.009943,-18.674805,0.742676C-19.383547,0.469988,-19.882093,-0.174656,-19.967773,-0.929199C-20.073664,-1.470954,-20.012705,-2.032186,-19.792969,-2.538574C-19.28488,-3.5022,-18.27247,-4.09233,-17.183594,-4.05957L-16.90332,-4.04834z"/>
    <path transform="matrix(2.067128,0,0,2.067128,103.912773,37.112511)" style="stroke:#000000;stroke-width:0.024188mm;fill:none" d="M32.732422,6.874512L32.437012,6.895996C30.89537,7.045449,29.499424,7.872246,28.627441,9.152344C27.842932,10.261686,27.433535,11.592698,27.458984,12.951172C27.429098,15.021601,28.414923,16.975193,30.098145,18.181152C32.328693,19.699917,35.348431,19.267406,37.062988,17.183594C38.072586,16.007248,38.61557,14.501129,38.588867,12.951172C38.609711,11.789767,38.312889,10.644682,37.730469,9.639648C37.246555,8.806782,36.567783,8.103712,35.752441,7.59082C34.840977,7.053083,33.788292,6.8034,32.732422,6.874512z"/>
    <path transform="matrix(2.067128,0,0,2.067128,103.912773,37.112511)" style="stroke:#000000;stroke-width:0.024188mm;fill:none" d="M-14.803223,3.617676L-14.73291,3.635742C-14.594592,3.699584,-14.515079,3.847454,-14.538086,3.998047C-14.576035,6.071424,-14.668854,8.143909,-14.816406,10.212402L-14.849609,10.880371C-14.93988,12.764941,-14.953568,14.652428,-14.890625,16.538086L-14.836914,19.312988C-14.8106,20.358923,-14.801155,21.405451,-14.808594,22.45166C-14.808985,22.611309,-14.925351,22.747316,-15.083008,22.772461L-15.168945,22.778809L-19.136719,22.778809C-19.320751,22.770554,-19.473728,22.634855,-19.503906,22.453125C-19.547701,22.28734,-19.567919,22.116251,-19.563965,21.944824C-19.533325,19.390078,-19.487427,16.833355,-19.42627,14.279297L-19.421875,13.480469C-19.453468,11.634352,-19.549736,9.789605,-19.710449,7.950195L-19.758301,7.230957C-19.844622,6.114928,-19.886164,4.995789,-19.882813,3.876465C-19.863298,3.754683,-19.770294,3.657793,-19.649414,3.633301C-19.329391,3.60216,-19.006767,3.614146,-18.689941,3.668945L-17.975098,3.757813C-17.449924,3.83213,-16.916777,3.83213,-16.391602,3.757813L-15.675781,3.668945C-15.386959,3.626651,-15.09501,3.609497,-14.803223,3.617676z"/>
    <path transform="matrix(2.067128,0,0,2.067128,103.912773,37.112511)" style="stroke:#000000;stroke-width:0.024188mm;fill:none" d="M-22.654297,-5.884766L-22.543945,-5.867676C-22.362621,-5.844769,-22.217953,-5.704865,-22.188965,-5.524414L-22.193848,-5.542969L-22.19873,-5.54248C-22.246447,-4.691504,-22.245306,-3.838628,-22.195313,-2.987793L-22.14209,-2.463867C-22.097549,-2.195039,-22.093597,-1.92088,-22.130371,-1.650879C-22.149391,-1.477322,-22.299128,-1.347394,-22.473633,-1.353027C-24.874563,-1.418396,-27.276804,-1.499817,-29.676758,-1.597168C-29.808365,2.15659,-29.86586,5.912838,-29.849121,9.668945C-29.770569,12.938478,-29.673401,16.199123,-29.557129,19.467285L-29.538574,20.308594C-29.514942,21.03636,-29.509892,21.764679,-29.523438,22.492676C-29.55829,22.650103,-29.686665,22.769545,-29.846191,22.792969C-30.187105,22.828247,-30.530758,22.82563,-30.871094,22.785156L-31.57666,22.731934C-32.329071,22.678165,-33.084942,22.695988,-33.833984,22.785156L-34.138184,22.804688C-34.365955,22.838171,-34.597847,22.83255,-34.82373,22.788086C-35.018867,22.715672,-35.137917,22.517275,-35.109863,22.311035C-35.07222,19.25951,-34.979446,16.209768,-34.831543,13.161621L-34.79834,12.179688C-34.689133,8.58609,-34.70607,4.989912,-34.849121,1.397461C-34.878845,0.404003,-34.911682,-0.603756,-34.946777,-1.597168C-36.618069,-1.490646,-38.291107,-1.402878,-39.964355,-1.333984C-40.890312,-1.281281,-41.817871,-1.264832,-42.745117,-1.284668C-42.799973,-1.296509,-42.84557,-1.334442,-42.867188,-1.38623C-42.889297,-1.663088,-42.859493,-1.941611,-42.779297,-2.20752L-42.43457,-3.591309L-42.421387,-3.777832C-42.360558,-4.37767,-42.269951,-4.97411,-42.149902,-5.564941C-42.10807,-5.721297,-41.966053,-5.830026,-41.804199,-5.82959L-41.55957,-5.809082C-38.497635,-5.600418,-35.432457,-5.458664,-32.364258,-5.383789C-30.041271,-5.402412,-27.719629,-5.503548,-25.403809,-5.687012C-24.516357,-5.733147,-23.629574,-5.796818,-22.744629,-5.87793L-22.709961,-5.883301L-22.704102,-5.887207L-22.654297,-5.884766z"/>
    <path transform="matrix(2.067128,0,0,2.067128,103.912773,37.112511)" style="stroke:#000000;stroke-width:0.024188mm;fill:none" d="M14.592773,2.867188L15.036133,2.893066C16.051228,2.943286,17.041382,3.225234,17.930664,3.717285C18.885807,4.280533,19.587025,5.190998,19.887695,6.258301C20.216049,7.400273,20.379807,8.58326,20.374023,9.771484C20.363724,11.299831,20.338028,12.827156,20.296875,14.35498L20.300293,15.07666C20.326416,16.868155,20.36084,18.670628,20.40332,20.461914L20.415039,21.345215C20.427448,21.647696,20.426308,21.950556,20.411621,22.25293C20.411097,22.433455,20.349091,22.60844,20.23584,22.749023C20.109905,22.856951,19.939125,22.89706,19.77832,22.856445C19.344269,22.830605,18.910732,22.796253,18.478027,22.753418L18.259766,22.742188C17.507248,22.753212,16.754932,22.779099,16.003418,22.819824L15.90332,22.804688C15.758422,22.739338,15.657436,22.603823,15.63623,22.446289C15.592333,22.255146,15.572164,22.059359,15.576172,21.863281C15.606567,20.172945,15.652466,18.482838,15.713867,16.793457L15.718262,16.268066C15.740784,14.355195,15.727264,12.442219,15.677734,10.529785C15.643835,9.810084,15.505659,9.098973,15.267578,8.418945C15.142022,8.037603,14.912769,7.698795,14.605469,7.44043C14.111394,7.095758,13.53499,6.888409,12.93457,6.839355C12.403478,6.755836,11.86198,6.763598,11.333496,6.862305C10.67544,7.033222,10.054745,7.324204,9.502441,7.720703C8.857049,8.133347,8.293034,8.661438,7.838867,9.27832C7.527597,9.700942,7.361684,10.21342,7.366211,10.738281C7.248863,14.179991,7.272484,17.625134,7.437012,21.064941L7.452148,21.75C7.47339,22.016983,7.4675,22.285475,7.43457,22.55127C7.419471,22.728476,7.269123,22.863857,7.091309,22.860352C6.446289,22.834631,5.802031,22.79524,5.158691,22.742188L4.95459,22.738281C4.377192,22.755543,3.800215,22.78191,3.223633,22.817383L3.041992,22.819824C2.847684,22.826193,2.681073,22.681129,2.660645,22.487793C2.633556,22.316668,2.625207,22.14315,2.635742,21.970215C2.665192,20.388254,2.70285,18.802217,2.748535,17.220703L2.756348,16.608887L2.757324,11.445313C2.785987,10.533568,2.681869,9.62249,2.448242,8.740723C2.209872,7.888367,1.544561,7.221206,0.692871,6.980469C-0.108646,6.734367,-0.963343,6.719474,-1.772949,6.9375C-2.961524,7.305479,-4.056771,7.924271,-4.985352,8.752441C-5.343608,9.067589,-5.598815,9.483236,-5.717773,9.945313L-5.748047,10.245117C-5.757813,14.244258,-5.744385,18.22998,-5.70752,22.229492L-5.714844,22.368164C-5.712193,22.490467,-5.758729,22.609329,-5.846028,22.694962C-5.933327,22.780592,-6.053064,22.824827,-6.175293,22.819824L-9.959961,22.819824C-10.070065,22.820564,-10.175784,22.776079,-10.251719,22.696352C-10.327655,22.616623,-10.36694,22.508862,-10.36084,22.398926C-10.359253,19.040091,-10.347778,15.719226,-10.326172,12.361328L-10.338867,11.430664C-10.404182,9.164738,-10.680939,6.909795,-11.165527,4.695313L-11.181152,4.506836C-11.207325,4.373323,-11.128169,4.241392,-10.998047,4.20166L-10.578125,4.152344C-9.98433,4.074577,-9.391919,3.989326,-8.800293,3.896484L-8.62207,3.845215C-7.963508,3.671328,-7.296252,3.532301,-6.623047,3.428711C-6.534277,3.463267,-6.467969,3.538091,-6.444336,3.630371C-6.337479,3.920294,-6.262014,4.220843,-6.219238,4.526855L-6.112793,5.199219C-6.074248,5.543899,-5.993887,5.882729,-5.873535,6.208008C-5.862574,6.250314,-5.830688,6.284049,-5.789063,6.297363L-4.771484,5.402344C-3.808125,4.539942,-2.703402,3.849821,-1.505859,3.362305C-0.32659,2.901564,0.950907,2.748788,2.205566,2.918457C3.167017,3.004202,4.095662,3.311022,4.918945,3.814941C5.804341,4.395506,6.48829,5.235859,6.876953,6.220703L7.050293,6.684082L7.375488,6.286133C8.649408,4.81284,10.308983,3.724607,12.167969,3.143555C12.954841,2.915281,13.774714,2.821836,14.592773,2.867188z"/>
    <path transform="matrix(2.067128,0,0,2.067128,103.912773,37.112511)" style="stroke:#000000;stroke-width:0.024188mm;fill:none" d="M33.552734,2.66748C36.047993,2.757291,38.401043,3.854184,40.074219,5.70752C41.924969,7.643115,42.934673,10.23313,42.882324,12.910645C42.935501,16.138046,41.49435,19.210167,38.978516,21.232422C37.302135,22.598156,35.196117,23.326284,33.03418,23.287598C30.33651,23.336544,27.75053,22.207073,25.953125,20.194824C24.112656,18.237852,23.111797,15.637094,23.165527,12.951172C23.125113,10.782373,23.769106,8.655603,25.005859,6.873535C26.135344,5.223884,27.739628,3.9566,29.605957,3.239746C30.870028,2.786918,32.212112,2.59232,33.552734,2.66748z"/>
</svg>
